<?xml version="1.0" standalone="no"?>
<!DOCTYPE svg PUBLIC "-//W3C//DTD SVG 20010904//EN"
 "http://www.w3.org/TR/2001/REC-SVG-20010904/DTD/svg10.dtd">
<svg version="1.0" xmlns="http://www.w3.org/2000/svg"
 width="782.000000pt" height="782.000000pt" viewBox="0 0 782.000000 782.000000"
 preserveAspectRatio="xMidYMid meet">
<metadata>
Created by potrace 1.14, written by Peter Selinger 2001-2017
</metadata>
<g transform="translate(0.000000,782.000000) scale(0.100000,-0.100000)"
fill="#000000" stroke="none">
<path d="M2700 4793 c-252 -38 -461 -156 -607 -346 -238 -307 -231 -783 15
-1086 180 -221 454 -343 769 -342 454 2 813 263 920 668 20 79 26 122 26 223
1 193 -42 346 -138 489 -141 210 -380 358 -640 396 -91 13 -249 12 -345 -2z
m305 -442 c178 -67 287 -233 287 -436 1 -130 -40 -239 -123 -330 -136 -148
-352 -173 -518 -60 -40 28 -125 124 -147 166 -72 143 -68 330 10 463 55 95
157 176 255 203 61 16 185 14 236 -6z"/>
<path d="M12 4786 c-3 -5 -6 -400 -6 -878 l-1 -868 240 0 241 0 -1 473 c0 259
1 477 3 483 2 7 65 -70 141 -170 75 -99 184 -242 240 -316 57 -74 160 -210
230 -302 l126 -167 223 -1 222 0 -2 876 -3 876 -232 2 c-199 1 -232 -1 -235
-14 -2 -8 -4 -225 -3 -482 0 -258 -3 -468 -6 -468 -4 0 -62 73 -130 163 -67
89 -157 207 -199 262 -42 55 -119 156 -170 225 -52 69 -98 130 -103 135 -4 6
-35 46 -68 90 -34 44 -62 82 -64 83 -8 9 -437 6 -443 -2z"/>
<path d="M3911 4790 c-4 -3 10 -50 31 -105 22 -55 49 -125 60 -155 12 -30 26
-68 33 -85 7 -16 18 -46 25 -65 7 -19 16 -44 21 -55 5 -11 38 -99 75 -195 36
-96 76 -202 89 -235 13 -33 42 -109 65 -170 23 -60 45 -119 50 -130 8 -21 25
-65 134 -350 35 -93 68 -178 71 -188 7 -16 27 -17 278 -15 l271 3 21 55 c77
194 141 361 275 710 83 217 155 404 160 415 5 11 46 115 90 230 44 116 84 219
89 230 5 11 16 39 25 63 l16 42 -28 1 c-86 2 -504 0 -506 -3 -1 -1 -42 -124
-91 -273 -205 -625 -302 -915 -306 -919 -3 -3 -94 264 -203 594 -156 476 -200
600 -214 601 -90 3 -526 3 -531 -1z"/>
<path d="M6546 4765 c-7 -16 -104 -244 -216 -505 -111 -261 -267 -628 -347
-815 -126 -297 -154 -363 -171 -397 -2 -5 117 -8 265 -8 l268 0 22 58 c11 31
35 93 51 137 l30 80 355 3 354 2 50 -137 50 -138 277 -3 c152 -1 276 0 276 3
0 4 -25 68 -56 143 -80 196 -384 931 -399 967 -7 17 -68 165 -136 330 -67 165
-123 301 -125 303 -1 2 -122 4 -269 5 l-267 2 -12 -30z m301 -592 c17 -49 48
-133 68 -188 21 -55 52 -142 71 -192 l33 -93 -210 0 c-128 0 -209 4 -209 10 0
5 6 24 14 42 14 33 22 54 132 350 33 87 61 158 64 158 3 0 20 -39 37 -87z"/>
</g>
</svg>
