<?xml version="1.0" encoding="UTF-8" standalone="no"?>
<!-- Created with Inkscape (http://www.inkscape.org/) -->

<svg
   xmlns:dc="http://purl.org/dc/elements/1.1/"
   xmlns:cc="http://creativecommons.org/ns#"
   xmlns:rdf="http://www.w3.org/1999/02/22-rdf-syntax-ns#"
   xmlns:svg="http://www.w3.org/2000/svg"
   xmlns="http://www.w3.org/2000/svg"
   xmlns:sodipodi="http://sodipodi.sourceforge.net/DTD/sodipodi-0.dtd"
   xmlns:inkscape="http://www.inkscape.org/namespaces/inkscape"
   width="1000"
   height="350.4523"
   id="svg5264"
   version="1.1"
   inkscape:version="0.48.5 r10040"
   sodipodi:docname="drawing.svg">
  <defs
     id="defs5266">
    <clipPath
       clipPathUnits="userSpaceOnUse"
       id="clipPath4790">
      <path
         inkscape:connector-curvature="0"
         d="M 0,0 792,0 792,612 0,612 0,0 z"
         id="path4792" />
    </clipPath>
  </defs>
  <sodipodi:namedview
     id="base"
     pagecolor="#ffffff"
     bordercolor="#666666"
     borderopacity="1.0"
     inkscape:pageopacity="0.0"
     inkscape:pageshadow="2"
     inkscape:zoom="0.39975011"
     inkscape:cx="968.32162"
     inkscape:cy="-41.428255"
     inkscape:document-units="px"
     inkscape:current-layer="layer1"
     showgrid="false"
     fit-margin-left="0.5"
     fit-margin-bottom="0.5"
     fit-margin-top="0.5"
     fit-margin-right="0.5"
     inkscape:window-width="1049"
     inkscape:window-height="1024"
     inkscape:window-x="865"
     inkscape:window-y="-9"
     inkscape:window-maximized="0" />
  <metadata
     id="metadata5269">
    <rdf:RDF>
      <cc:Work
         rdf:about="">
        <dc:format>image/svg+xml</dc:format>
        <dc:type
           rdf:resource="http://purl.org/dc/dcmitype/StillImage" />
        <dc:title></dc:title>
      </cc:Work>
    </rdf:RDF>
  </metadata>
  <g
     inkscape:label="Layer 1"
     inkscape:groupmode="layer"
     id="layer1"
     transform="translate(-561.44945,-305.91519)">
    <g
       id="g5429"
       transform="matrix(10.809836,0,0,-10.809836,608.28168,454.45589)"
       style="fill:#c51230;fill-opacity:1">
      <path
         d="M 0,0 C -0.584,-0.896 -0.601,-2.824 -0.189,-5.543 0.222,-8.265 1.936,-8.739 2.468,-8.767 3.003,-8.8 5.162,-8.202 4.553,-3.189 3.945,1.822 1.62,1.343 1.62,1.343 0.759,1.217 0.59,0.894 0,0 m 3.258,5.122 c 0,0 4.467,0.624 4.575,0.387 0.455,-1.025 1.239,-14.762 1.239,-14.762 0,0 1.019,-5.461 -1.188,-7.228 -2.206,-1.768 -4.969,-2.206 -6.628,-2.146 -1.662,0.054 -2.882,0.092 -3.288,0.289 -0.638,0.311 -1.178,3.246 -0.322,3.827 1.04,0.705 4.076,-0.784 5.147,-0.23 1.07,0.558 2.006,1.488 1.879,3.01 -0.126,1.52 -0.155,1.862 -0.155,1.862 0,0 -0.81,-2.496 -2.832,-2.904 -2.019,-0.409 -4.733,1.092 -5.469,5.067 -0.736,3.974 -0.555,7.576 -0.143,8.997 0.41,1.419 1.389,3.929 3.668,3.889 C 2.022,5.143 3.259,3.101 3.259,3.101 L 3.258,5.122 z"
         style="fill:#c51230;fill-opacity:1;fill-rule:nonzero;stroke:none"
         id="path5431"
         inkscape:connector-curvature="0" />
    </g>
    <g
       id="g5433"
       transform="matrix(10.809836,0,0,-10.809836,724.85928,387.78731)"
       style="fill:#c51230;fill-opacity:1">
      <path
         d="m 0,0 c -0.008,-0.527 0.689,-16.836 0.836,-17.058 0.063,-0.095 3.616,0.136 3.756,0.184 l -0.466,9.473 c 0,0 -0.035,1.686 0.501,2.295 0.538,0.605 0.894,1.039 2.014,1.092 0.216,0.012 0.052,4.092 -0.16,4.525 0,0 -1.289,-0.059 -1.749,-0.735 C 4.269,-0.897 4.132,-1.143 4.021,-1.467 3.907,-1.79 3.858,-1.948 3.858,-1.948 L 3.755,0.183 0,0 z"
         style="fill:#c51230;fill-opacity:1;fill-rule:nonzero;stroke:none"
         id="path5435"
         inkscape:connector-curvature="0" />
    </g>
    <g
       id="g5437"
       transform="matrix(10.809836,0,0,-10.809836,817.15686,379.85401)"
       style="fill:#c51230;fill-opacity:1">
      <path
         d="m 0,0 c -0.012,0.159 3.742,0.413 3.752,0.229 0.093,-1.508 0.735,-11.906 0.735,-11.906 0,0 0.75,-2.265 1.367,-2.006 1.371,0.57 1.178,2.142 1.178,2.142 0,0 -0.962,10.81 -0.735,11.93 l 3.751,0.231 c 0.279,-3.596 1.006,-12.945 1.052,-17.044 0,0 -3.524,-0.889 -3.752,-0.232 -0.225,0.644 -0.125,2.035 -0.125,2.035 0,0 -0.792,-2.508 -3.045,-2.545 -2.252,-0.038 -3.24,2.388 -3.311,3.32 C 0.794,-12.911 0.1,-1.297 0,0"
         style="fill:#c51230;fill-opacity:1;fill-rule:nonzero;stroke:none"
         id="path5439"
         inkscape:connector-curvature="0" />
    </g>
    <g
       id="g5441"
       transform="matrix(10.809836,0,0,-10.809836,1000.976,434.39828)"
       style="fill:#c51230;fill-opacity:1">
      <path
         d="m 0,0 c -0.394,-0.981 -0.294,-2.938 -0.093,-5.762 0.197,-2.823 2.918,-1.991 2.918,-1.991 0,0 1.234,0.616 1.342,4.888 C 4.27,1.404 2.058,2.001 2.058,2.001 0.626,1.949 0.394,0.982 0,0 M -0.143,10.183 C -0.105,8.937 0.049,3.051 0.049,3.051 l 0.368,0.636 c 0,0 1.089,1.868 2.679,1.765 C 4.682,5.349 6.462,4.489 6.945,-0.146 7.429,-4.785 6.861,-7.556 6.52,-8.826 6.186,-10.098 5.207,-11.295 3.278,-11.343 1.35,-11.398 0.38,-9.16 0.38,-9.16 c 0,0 0.377,-1.593 0.054,-1.962 -0.952,-1.077 -3.897,-0.363 -3.906,-0.095 -0.01,0.394 -0.17,6.376 -0.17,6.376 0,0 -0.386,12.761 -0.403,14.93 -0.001,0.223 3.887,0.523 3.902,0.094"
         style="fill:#c51230;fill-opacity:1;fill-rule:nonzero;stroke:none"
         id="path5443"
         inkscape:connector-curvature="0" />
    </g>
    <g
       id="g5445"
       transform="matrix(10.809836,0,0,-10.809836,1115.1981,306.41519)"
       style="fill:#c51230;fill-opacity:1">
      <path
         d="m 0,0 3.989,-0.22 c 0,0 -0.806,-8.809 -0.521,-9.475 0.07,-0.164 3.428,-0.402 3.462,-0.191 0.185,1.041 0.523,9.475 0.523,9.475 l 3.985,-0.218 c 0,0 -0.483,-12.462 -0.522,-13.172 -0.057,-1.122 -0.605,-9.605 -0.735,-9.701 -0.795,-0.598 -3.985,0.218 -3.985,0.218 0,0 0.569,8.245 0.528,9.607 -0.006,0.17 -3.463,0.19 -3.463,0.19 -0.1,-1.811 -0.092,-9.01 -0.53,-9.606 -0.59,-0.804 -3.987,0.22 -3.987,0.22 C -1.156,-19.288 0,0 0,0"
         style="fill:#c51230;fill-opacity:1;fill-rule:nonzero;stroke:none"
         id="path5447"
         inkscape:connector-curvature="0" />
    </g>
    <g
       id="g5449"
       transform="matrix(10.809836,0,0,-10.809836,1269.2156,370.65372)"
       style="fill:#c51230;fill-opacity:1">
      <path
         d="M 0,0 C 0.048,0.325 3.761,-0.207 3.732,-0.43 3.5,-2.443 2.35,-12.427 2.35,-12.427 c 0,0 -0.135,-2.21 1.011,-2.073 1.146,0.139 1.437,1.059 1.625,2.695 0.19,1.631 1.126,9.765 1.28,11.082 l 3.735,-0.432 C 9.031,-6.312 8.042,-18.119 8.042,-18.119 l -3.735,0.43 0.212,1.836 c 0,0 -1.397,-2.008 -3.255,-1.804 -1.858,0.204 -3.071,2.001 -2.739,4.908 C -1.138,-9.846 -0.18,-1.214 0,0"
         style="fill:#c51230;fill-opacity:1;fill-rule:nonzero;stroke:none"
         id="path5451"
         inkscape:connector-curvature="0" />
    </g>
    <g
       id="g5453"
       transform="matrix(10.809836,0,0,-10.809836,1432.576,490.89914)"
       style="fill:#c51230;fill-opacity:1">
      <path
         d="m 0,0 c 0.021,-4.885 1.849,-5.382 1.849,-5.382 0,0 2.342,0.111 2.791,4.884 C 5.089,4.277 2.913,4.671 2.913,4.671 2.913,4.671 -0.018,4.909 0,0 m -3.501,5.211 c 0.05,0.388 1.241,7.94 1.412,9.359 0,0 4.166,-0.212 4.13,-0.521 C 1.829,12.287 1.14,6.585 1.14,6.585 c 0,0 1.816,2.377 3.111,2.094 C 5.546,8.398 7.093,8.419 7.812,4.747 8.534,1.076 6.918,-4.993 6.625,-5.705 6.328,-6.414 5.187,-9.167 2.6,-8.985 c -2.583,0.181 -2.503,1.8 -2.503,1.8 L -0.4,-6.197 c 0,0 0.152,-1.705 -0.245,-2.017 -0.817,-0.645 -3.767,-0.491 -4.136,0.481 -0.574,1.523 1.234,12.558 1.28,12.944"
         style="fill:#c51230;fill-opacity:1;fill-rule:nonzero;stroke:none"
         id="path5455"
         inkscape:connector-curvature="0" />
    </g>
    <g
       id="g5457"
       transform="matrix(10.809836,0,0,-10.809836,1542.6374,390.64543)"
       style="fill:#c51230;fill-opacity:1">
      <path
         d="M 0,0 0.158,0.001 C 0.342,0.003 0.49,0.065 0.49,0.214 0.49,0.346 0.391,0.433 0.181,0.43 0.093,0.43 0.032,0.421 -0.003,0.413 L 0,0 z M -0.003,-0.806 -0.337,-0.809 -0.346,0.63 C -0.214,0.648 -0.03,0.675 0.206,0.677 0.478,0.678 0.601,0.636 0.699,0.565 0.785,0.504 0.849,0.4 0.849,0.26 0.85,0.084 0.719,-0.03 0.553,-0.084 l 0,-0.017 c 0.14,-0.044 0.212,-0.157 0.257,-0.35 0.047,-0.219 0.082,-0.297 0.106,-0.35 L 0.568,-0.802 C 0.522,-0.75 0.495,-0.627 0.45,-0.454 0.423,-0.303 0.334,-0.235 0.15,-0.236 l -0.156,0 0.003,-0.57 z m -0.891,0.739 c 0.005,-0.641 0.491,-1.145 1.13,-1.142 0.623,-0.004 1.092,0.517 1.089,1.148 C 1.321,0.579 0.844,1.093 0.203,1.087 -0.419,1.085 -0.898,0.564 -0.894,-0.067 m 2.588,0.016 c 0.004,-0.806 -0.642,-1.45 -1.465,-1.456 -0.824,-0.005 -1.486,0.631 -1.49,1.437 -0.007,0.807 0.648,1.442 1.48,1.448 0.815,0.006 1.468,-0.621 1.475,-1.429"
         style="fill:#c51230;fill-opacity:1;fill-rule:nonzero;stroke:none"
         id="path5459"
         inkscape:connector-curvature="0" />
    </g>
  </g>
</svg>
