<?xml version="1.0" encoding="UTF-8"?>
<svg width="15px" height="13px" viewBox="0 0 15 13" version="1.1" xmlns="http://www.w3.org/2000/svg" xmlns:xlink="http://www.w3.org/1999/xlink">
    <g id="Page-1" stroke="none" stroke-width="1" fill="none" fill-rule="evenodd">
        <g id="Theme-Copy" transform="translate(-344.000000, -2512.000000)" fill-rule="nonzero" fill="#464646">
            <g id="Group-3" transform="translate(344.000000, 2511.000000)">
                <g id="team-google" transform="translate(0.000000, 1.000000)">
                    <g id="google_L">
                        <g id="Page-1">
                            <g id="Artboard-1">
                                <g id="line-icons">
                                    <g id="row-4-line-icons"><path d="M 6.53023 5.75666 L 6.53023 7.6559 L 10.0163 7.6559 C 9.49626 9.30705 7.94959 10.5048 6.12204 10.5048 C 3.86791 10.5048 2.04069 8.6826 2.04069 6.43497 C 2.04069 4.18724 3.86798 2.36521 6.12204 2.36521 C 7.25715 2.36521 8.28382 2.82739 9.02362 3.57317 L 10.4062 2.07469 C 9.302 0.995817 7.7901 0.330349 6.12204 0.330349 C 2.74095 0.330317 0 3.06348 0 6.43497 C 0 9.80646 2.74095 12.5397 6.12208 12.5397 C 9.08382 12.5397 11.6769 10.4423 12.2442 7.65593 L 12.2442 5.75669 L 6.53023 5.75666 Z"></path></g>
                                </g>
                            </g>
                        </g>
                    </g>
                </g>
            </g>
        </g>
    </g>
</svg>