<svg height="31" viewBox="0 0 92 31" width="92" xmlns="http://www.w3.org/2000/svg"><g fill="#fff" fill-rule="evenodd" transform="translate(0 -5)"><g transform="matrix(.9945219 -.10452846 .10452846 .9945219 .117162 9.569035)"><path d="m22.3258143 2.55782049c0 5.36397306-2.7451763 13.50926551-5.9033437 13.50926551-1.141799 0-1.4333221-2.1604892-1.4333221-2.1604892s3.4011033-4.59414357 3.4011033-7.02779801c0-.76982947-.5587527-1.34099327-1.3604413-1.34099327-3.1581674 0-3.8626817 7.84729388-3.8626817 7.84729388s-2.1135428 2.731653-3.35251619 2.731653c-.60733989 0-1.04462461-.4221646-1.04462461-1.067828 0-2.7813193 4.1299112-8.96478829 4.1299112-11.99443974 0-2.03632311-1.3361477-3.05448466-3.30392895-3.05448466-3.54686495 0-9.59597025 3.62564846-9.59597025 7.15196408 0 1.98665669 2.79376349 3.67531492 4.08132406 3.67531492.34011033 0 .5101655-.1489993.5101655-.471831s-1.19038618-.86916231-1.19038618-2.78131937c0-2.40882124 3.52257136-6.08413611 5.4903526-6.08413611.72880786 0 1.04462461.52149738 1.04462461 1.11749438 0 3.55114884-4.47002159 9.4614525-4.47002159 12.9132685 0 1.6886582 1.43332214 2.7068197 2.98811226 2.7068197 2.52653394 0 4.93159994-2.855819 4.93159994-2.855819s.3886975 2.855819 3.0852866 2.855819c4.7129575 0 8.9157496-9.63528492 8.9157496-15.74425424 0-1.36582647-2.1378364-2.48332086-3.0609931-2.48332086-.1700551 0-.2915231.12416604-.2915231.32283171 0 .2731653.2915231.81949589.2915231 2.23498878z"/><path d="m52.8996326 14.4401752s-1.8949004 3.2283171-6.8750875 3.2283171c-2.405066 0-4.3971408-2.1853223-4.3971408-3.6504816 0-1.4403261 2.3321852-1.9866567 2.3321852-1.9866567s.5101655-.8194959 1.6276709-2.58265371c1.141799-1.7383246 1.919194-2.33432161 2.5265339-2.33432161.5101655 0 1.1903862.67049664 1.1903862.91882872 0 .34766492-.5830463.96849514-.5830463 1.63899177 0 1.96182353.9474502 2.78131933.9474502 4.29614513 0 1.2664936-.5587527 1.8873238-.5587527 1.8873238 1.9191941-.5214974 3.0124059-2.1604891 3.0124059-2.1604891s.1943487-.347665.4858719-.347665c.2672295 0 .5101655.2234989.5101655.4966642 0 .2234989-.2186424.595997-.2186424.595997zm-6.8507939-3.8243141s-1.7977261 2.8061526-1.7977261 3.1289843c0 1.4403261.3158168 2.8309858 1.1903862 2.8309858.7531015 0 1.3604413-.9684952 1.3604413-2.0859896 0-1.2664936-.7531014-2.8558189-.7531014-3.8739805z"/><path d="m33.1062615 13.8247144c0 .2234988-.2186424.595997-.2186424.595997s-1.7248452 3.0544846-5.4174718 3.0544846c-2.4536531 0-4.2270856-1.5396589-4.2270856-3.6504816 0-3.799481 3.0852866-6.30763504 5.1988295-6.30763504 1.4819093 0 2.6722955 1.29132685 2.6722955 2.60748694 0 1.191994-.8988631 3.6753148-3.9598561 3.6753148-.2672296 0-.9231566-.1489992-.9231566-.1489992 0 1.4651593.9717438 2.3094884 2.1378364 2.3094884 2.3078915 0 3.7412137-2.2846552 3.7412137-2.2846552s.1943487-.3476649.4858719-.3476649c.2672295 0 .5101655.2234989.5101655.4966642zm-6.7536196-1.1919941c1.7734325 0 3.1581675-2.3094884 3.1581675-3.35248312 0-.32283172-.1700552-.49666418-.4372848-.49666418-1.3361477 0-2.7208827 2.5578205-2.7208827 3.8491473z"/><path d="m60.1575085 14.4207114s.2672295-.3724982.2672295-.595997c0-.2731653-.2186424-.4966642-.5101655-.4966642s-.5344591.3476649-.5344591.3476649-1.4819093 2.259822-3.6926265 2.259822c-1.3361478 0-2.405066-.8194959-2.405066-2.5329873 0-2.259822 1.384735-4.66864321 2.7937635-4.66864321.3886975 0 .7045143.24833208.7045143.52149738 0 .52149738-.9717438.67049663-.9717438 1.51482573 0 .5463306.5830462 1.0429948 1.2389733 1.0429948.6316335 0 1.4576158-1.0429948 1.4576158-1.8873239 0-1.1423276-1.0446247-2.40882124-2.7694699-2.40882124-2.4779468 0-5.4417654 2.85581904-5.4417654 6.18346894 0 2.7813194 2.3078915 3.7746477 4.3971408 3.7746477 3.4496905 0 5.466059-3.0544846 5.466059-3.0544846z"/><path d="m70.9576531 14.4207114s-1.3847349 2.1356559-4.2270856 2.1356559c-.2915231 0-.6073399-.0248332-.9474502-.0744996-.7773951.6208302-1.7248453.9933283-2.7694699.9933283-2.0163684 0-3.7898009-1.5644921-3.7898009-3.5014824 0-4.17197904 3.1095802-6.45663424 5.6361142-6.45663424 2.0163684 0 3.5711585 1.39065969 3.5711585 3.67531484 0 1.3161601-.5587527 2.8806522-1.5062029 4.1223127.121468.0248332.2429359.0496664.3886975.0496664 1.6519645 0 2.8666443-1.6886582 2.8666443-1.6886582s.1943488-.3476649.4858719-.3476649c.2672295 0 .5101655.2234989.5101655.4966642 0 .2234988-.2186424.595997-.2186424.595997zm-6.0733988-5.6371384c-3.3452484-.29722218-4.2477606 7.4996288-1.6276709 7.499629 2.6200896.0000002 4.9729192-7.20240681 1.6276709-7.499629z"/><path d="m81.1832871 13.8247144c0 .2234988-.2186423.595997-.2186423.595997s-1.384735 2.1356559-4.2270857 2.1356559c-.2186423 0-.4858719-.0248332-.7531014-.0496664-.7531015.595997-1.6276709.9684951-2.5994147.9684951-1.5547902 0-2.4293596-1.2664936-2.4293596-1.2664936-.5587527 1.4651593-1.3118542 5.1653074-1.3118542 7.1022976 0 .3973314-.1214679.5463306-.4615783.5463306-.9231566 0-2.2107172-.4221645-2.2107172-1.7631578 0-1.7631578 2.16213-10.355448 3.425397-13.85693039.121468-.2979985.3644039-.47183096.6802207-.47183096.3401103 0 .9231566.14899925 1.6762581 1.34099327 0 0 1.7248453-1.58932536 3.1581674-1.58932536 1.7248453 0 2.9152315 1.66382498 2.9152315 3.10415104 0 1.3906597-.6316335 3.2779836-1.7248453 4.7183097.0728808.0248332.1457615.0248332.2186423.0248332 1.6519645 0 2.8666443-1.6886582 2.8666443-1.6886582s.1943488-.3476649.4858719-.3476649c.2672296 0 .5101655.2234989.5101655.4966642zm-5.3392836-4.9818455c-2.0508394-.65140678-5.7041842 6.0167394-2.9205389 7.2665006 2.7836453 1.2497613 4.9713784-6.61509382 2.9205389-7.2665006z"/><path d="m43.9937318 13.8817636c0 .2234989-.2186423.595997-.2186423.595997s-1.384735 2.135656-4.2270857 2.135656c-.2429359 0-.5344591 0-.8259822-.0496665-.8016887.6208303-1.7734325.9684952-2.9152315.9684952-1.6519645 0-3.7655073-1.6389918-3.7655073-3.7498145 0-5.81097083 3.0366994-13.7824308 6.7779132-13.7824308 1.0689182 0 2.1864236 1.29132685 2.1864236 2.18532236 0 2.08598952-3.425397 5.88547044-3.5225714 6.00963648.0971744-.07449962.898863-.62083021 1.7491389-.62083021 1.2875606 0 2.4050659 1.39065968 2.4050659 2.65715327 0 1.6886582-.5830462 3.6753149-1.7491388 5.1653074.0728808.0248332.1457615.0248332.2429359.0248332 1.6519645 0 2.8666443-1.6886581 2.8666443-1.6886581s.1943488-.347665.4858719-.347665c.2672296 0 .5101655.2234989.5101655.4966642zm-4.4214344-11.72127445c0-.2979985-.1700551-.49666417-.4615783-.49666417-.8745694 0-2.6237083 3.50148241-3.5468649 7.15196408 1.6519645-1.61415856 4.0084432-5.14047419 4.0084432-6.65529991zm-.9631911 7.15864147c-2.1225866-.14514601-6.2736974 6.76587838-2.8023162 6.89695458 3.4713813.1310763 4.9249029-6.75180858 2.8023162-6.89695458z"/><path d="m89.0471897 13.9589479c0 .2234989-.2186424.595997-.2186424.595997s-1.7248453 3.0544847-5.4174718 3.0544847c-2.4536532 0-4.2270856-1.539659-4.2270856-3.6504817 0-3.7994809 3.0852866-6.30763498 5.1988294-6.30763498 1.4819094 0 2.6722955 1.29132685 2.6722955 2.60748688 0 1.191994-.898863 3.6753149-3.959856 3.6753149-.2672296 0-.9231567-.1489992-.9231567-.1489992 0 1.4651593.9717438 2.3094884 2.1378364 2.3094884 2.3078916 0 3.7412138-2.2846552 3.7412138-2.2846552s.1943487-.347665.4858719-.347665c.2672295 0 .5101655.2234989.5101655.4966642zm-6.7536196-1.191994c1.7734325 0 3.1581674-2.3094884 3.1581674-3.35248316 0-.32283172-.1700551-.49666418-.4372847-.49666418-1.3361478 0-2.7208827 2.55782054-2.7208827 3.84914734z"/></g><path d="m19.8094784 36.5433464c-.1468245-.0515204 0-1.4778553 1.9415852-2.6416937 12.7907165-5.8524999 58.7161818-14.188005 67.5207147-13.1500812 2.4605419 1.2835216 2.024487 2.8721114 2.0244887 2.8721115-22.7256132 0-65.4886847 10.4420899-71.4867886 12.9196634z" transform="matrix(.99939083 .0348995 -.0348995 .99939083 1.032078 -1.92113)"/></g></svg>